<svg width="201" height="60" viewBox="0 0 201 60" fill="none" xmlns="http://www.w3.org/2000/svg">
<mask id="path-1-outside-1_8_151" maskUnits="userSpaceOnUse" x="3.73999" y="0.920013" width="53" height="58" fill="black">
<rect fill="white" x="3.73999" y="0.920013" width="53" height="58"/>
<path d="M55.16 30.68C54.02 28.71 52.95 26.74 51.9 24.83C49.5 20.44 47.23 16.3 44.47 12.43C41.04 7.63001 35.63 5.10001 29.25 5.30001C28.83 5.31001 28.5 5.66001 28.52 6.08001C28.53 6.50001 28.89 6.83001 29.3 6.81001C35.16 6.63001 40.11 8.93001 43.23 13.31C45.94 17.1 48.19 21.21 50.57 25.55C51.45 27.16 52.35 28.81 53.3 30.47L47.85 31.34C47.48 31.4 47.21 31.72 47.21 32.09V44.77H37.68C37.26 44.77 36.92 45.11 36.92 45.53V53.51C36.92 53.93 37.26 54.27 37.68 54.27C38.1 54.27 38.44 53.93 38.44 53.51V46.29H47.97C48.39 46.29 48.73 45.95 48.73 45.53V32.73L54.62 31.79C54.87 31.75 55.08 31.59 55.19 31.37C55.3 31.15 55.28 30.9 55.16 30.68Z"/>
<path d="M37.6 23.69C37.59 23.28 37.25 22.95 36.84 22.95C36.83 22.95 36.83 22.95 36.82 22.95C30.47 23.1 24.03 23.06 17.8 23.03C15.1 23.01 12.32 23 9.55999 23C9.47999 23 9.40999 23 9.33999 23.01V19.76C11.09 19.38 12.42 17.71 12.42 15.72C12.42 13.45 10.7 11.6 8.57999 11.6C6.45999 11.6 4.73999 13.45 4.73999 15.72C4.73999 17.71 6.06999 19.38 7.81999 19.76V23.58C7.81999 23.59 7.81999 23.6 7.81999 23.62C7.81999 23.65 7.81999 23.67 7.82999 23.7C7.82999 23.72 7.83999 23.75 7.83999 23.77C7.84999 23.79 7.84999 23.82 7.85999 23.84C7.86999 23.87 7.87999 23.89 7.88999 23.92C7.89999 23.93 7.89999 23.94 7.89999 23.95C7.90999 23.97 7.91999 23.98 7.92999 23.99C7.92999 24 7.93999 24 7.93999 24.01C8.32999 24.63 9.05999 24.56 9.36999 24.52C9.42999 24.51 9.49999 24.51 9.53999 24.51C12.3 24.51 15.08 24.52 17.78 24.54C18.27 24.54 18.77 24.55 19.26 24.55V29.58C19.26 29.63 19.27 29.69 19.28 29.74C17.52 30.11 16.19 31.78 16.19 33.78C16.19 36.05 17.91 37.9 20.03 37.9C22.15 37.9 23.87 36.05 23.87 33.78C23.87 31.78 22.53 30.11 20.77 29.74C20.78 29.69 20.79 29.64 20.79 29.58V24.55C22.48 24.56 24.19 24.56 25.9 24.56C29.54 24.56 33.21 24.53 36.85 24.45C37.27 24.45 37.61 24.1 37.6 23.69ZM6.25999 15.72C6.25999 14.29 7.29999 13.12 8.57999 13.12C9.85999 13.12 10.9 14.29 10.9 15.72C10.9 17.15 9.85999 18.32 8.57999 18.32C7.29999 18.32 6.25999 17.16 6.25999 15.72ZM22.36 33.78C22.36 35.21 21.32 36.38 20.04 36.38C18.76 36.38 17.72 35.21 17.72 33.78C17.72 32.35 18.76 31.18 20.04 31.18C21.32 31.18 22.36 32.35 22.36 33.78Z"/>
<path d="M30.54 42.09C27.35 42.08 24.15 42.07 20.96 42.05L14.8 42.03C14.38 40.24 12.87 38.91 11.07 38.91C8.94999 38.91 7.22999 40.76 7.22999 43.03C7.22999 45.3 8.94999 47.15 11.07 47.15C13.02 47.15 14.64 45.58 14.88 43.55L20.95 43.57C22.24 43.58 23.53 43.58 24.82 43.59V49.92C23.07 50.3 21.74 51.97 21.74 53.96C21.74 56.23 23.46 58.08 25.58 58.08C27.7 58.08 29.42 56.23 29.42 53.96C29.42 51.97 28.09 50.3 26.34 49.92V43.6C27.74 43.61 29.14 43.61 30.53 43.62C30.95 43.62 31.29 43.28 31.29 42.86C31.3 42.43 30.96 42.09 30.54 42.09ZM11.08 45.63C9.79999 45.63 8.75999 44.46 8.75999 43.03C8.75999 41.6 9.79999 40.43 11.08 40.43C12.36 40.43 13.4 41.6 13.4 43.03C13.4 44.46 12.36 45.63 11.08 45.63ZM27.91 53.95C27.91 55.38 26.87 56.55 25.59 56.55C24.31 56.55 23.27 55.38 23.27 53.95C23.27 52.52 24.31 51.35 25.59 51.35C26.86 51.35 27.91 52.52 27.91 53.95Z"/>
<path d="M19.28 10.09V15.72C19.28 16.14 19.62 16.48 20.04 16.48H29.28C29.7 16.48 30.04 16.14 30.04 15.72C30.04 15.3 29.7 14.96 29.28 14.96H20.8V10.08C22.55 9.70001 23.88 8.03001 23.88 6.04001C23.88 3.77001 22.16 1.92001 20.04 1.92001C17.92 1.92001 16.2 3.77001 16.2 6.04001C16.2 8.04001 17.52 9.71001 19.28 10.09ZM20.03 3.45001C21.31 3.45001 22.35 4.62001 22.35 6.05001C22.35 7.48001 21.31 8.65001 20.03 8.65001C18.75 8.65001 17.71 7.48001 17.71 6.05001C17.71 4.62001 18.75 3.45001 20.03 3.45001Z"/>
</mask>
<path d="M55.16 30.68C54.02 28.71 52.95 26.74 51.9 24.83C49.5 20.44 47.23 16.3 44.47 12.43C41.04 7.63001 35.63 5.10001 29.25 5.30001C28.83 5.31001 28.5 5.66001 28.52 6.08001C28.53 6.50001 28.89 6.83001 29.3 6.81001C35.16 6.63001 40.11 8.93001 43.23 13.31C45.94 17.1 48.19 21.21 50.57 25.55C51.45 27.16 52.35 28.81 53.3 30.47L47.85 31.34C47.48 31.4 47.21 31.72 47.21 32.09V44.77H37.68C37.26 44.77 36.92 45.11 36.92 45.53V53.51C36.92 53.93 37.26 54.27 37.68 54.27C38.1 54.27 38.44 53.93 38.44 53.51V46.29H47.97C48.39 46.29 48.73 45.95 48.73 45.53V32.73L54.62 31.79C54.87 31.75 55.08 31.59 55.19 31.37C55.3 31.15 55.28 30.9 55.16 30.68Z" fill="#1C1C1C"/>
<path d="M37.6 23.69C37.59 23.28 37.25 22.95 36.84 22.95C36.83 22.95 36.83 22.95 36.82 22.95C30.47 23.1 24.03 23.06 17.8 23.03C15.1 23.01 12.32 23 9.55999 23C9.47999 23 9.40999 23 9.33999 23.01V19.76C11.09 19.38 12.42 17.71 12.42 15.72C12.42 13.45 10.7 11.6 8.57999 11.6C6.45999 11.6 4.73999 13.45 4.73999 15.72C4.73999 17.71 6.06999 19.38 7.81999 19.76V23.58C7.81999 23.59 7.81999 23.6 7.81999 23.62C7.81999 23.65 7.81999 23.67 7.82999 23.7C7.82999 23.72 7.83999 23.75 7.83999 23.77C7.84999 23.79 7.84999 23.82 7.85999 23.84C7.86999 23.87 7.87999 23.89 7.88999 23.92C7.89999 23.93 7.89999 23.94 7.89999 23.95C7.90999 23.97 7.91999 23.98 7.92999 23.99C7.92999 24 7.93999 24 7.93999 24.01C8.32999 24.63 9.05999 24.56 9.36999 24.52C9.42999 24.51 9.49999 24.51 9.53999 24.51C12.3 24.51 15.08 24.52 17.78 24.54C18.27 24.54 18.77 24.55 19.26 24.55V29.58C19.26 29.63 19.27 29.69 19.28 29.74C17.52 30.11 16.19 31.78 16.19 33.78C16.19 36.05 17.91 37.9 20.03 37.9C22.15 37.9 23.87 36.05 23.87 33.78C23.87 31.78 22.53 30.11 20.77 29.74C20.78 29.69 20.79 29.64 20.79 29.58V24.55C22.48 24.56 24.19 24.56 25.9 24.56C29.54 24.56 33.21 24.53 36.85 24.45C37.27 24.45 37.61 24.1 37.6 23.69ZM6.25999 15.72C6.25999 14.29 7.29999 13.12 8.57999 13.12C9.85999 13.12 10.9 14.29 10.9 15.72C10.9 17.15 9.85999 18.32 8.57999 18.32C7.29999 18.32 6.25999 17.16 6.25999 15.72ZM22.36 33.78C22.36 35.21 21.32 36.38 20.04 36.38C18.76 36.38 17.72 35.21 17.72 33.78C17.72 32.35 18.76 31.18 20.04 31.18C21.32 31.18 22.36 32.35 22.36 33.78Z" fill="#1C1C1C"/>
<path d="M30.54 42.09C27.35 42.08 24.15 42.07 20.96 42.05L14.8 42.03C14.38 40.24 12.87 38.91 11.07 38.91C8.94999 38.91 7.22999 40.76 7.22999 43.03C7.22999 45.3 8.94999 47.15 11.07 47.15C13.02 47.15 14.64 45.58 14.88 43.55L20.95 43.57C22.24 43.58 23.53 43.58 24.82 43.59V49.92C23.07 50.3 21.74 51.97 21.74 53.96C21.74 56.23 23.46 58.08 25.58 58.08C27.7 58.08 29.42 56.23 29.42 53.96C29.42 51.97 28.09 50.3 26.34 49.92V43.6C27.74 43.61 29.14 43.61 30.53 43.62C30.95 43.62 31.29 43.28 31.29 42.86C31.3 42.43 30.96 42.09 30.54 42.09ZM11.08 45.63C9.79999 45.63 8.75999 44.46 8.75999 43.03C8.75999 41.6 9.79999 40.43 11.08 40.43C12.36 40.43 13.4 41.6 13.4 43.03C13.4 44.46 12.36 45.63 11.08 45.63ZM27.91 53.95C27.91 55.38 26.87 56.55 25.59 56.55C24.31 56.55 23.27 55.38 23.27 53.95C23.27 52.52 24.31 51.35 25.59 51.35C26.86 51.35 27.91 52.52 27.91 53.95Z" fill="#1C1C1C"/>
<path d="M19.28 10.09V15.72C19.28 16.14 19.62 16.48 20.04 16.48H29.28C29.7 16.48 30.04 16.14 30.04 15.72C30.04 15.3 29.7 14.96 29.28 14.96H20.8V10.08C22.55 9.70001 23.88 8.03001 23.88 6.04001C23.88 3.77001 22.16 1.92001 20.04 1.92001C17.92 1.92001 16.2 3.77001 16.2 6.04001C16.2 8.04001 17.52 9.71001 19.28 10.09ZM20.03 3.45001C21.31 3.45001 22.35 4.62001 22.35 6.05001C22.35 7.48001 21.31 8.65001 20.03 8.65001C18.75 8.65001 17.71 7.48001 17.71 6.05001C17.71 4.62001 18.75 3.45001 20.03 3.45001Z" fill="#1C1C1C"/>
<path d="M55.16 30.68C54.02 28.71 52.95 26.74 51.9 24.83C49.5 20.44 47.23 16.3 44.47 12.43C41.04 7.63001 35.63 5.10001 29.25 5.30001C28.83 5.31001 28.5 5.66001 28.52 6.08001C28.53 6.50001 28.89 6.83001 29.3 6.81001C35.16 6.63001 40.11 8.93001 43.23 13.31C45.94 17.1 48.19 21.21 50.57 25.55C51.45 27.16 52.35 28.81 53.3 30.47L47.85 31.34C47.48 31.4 47.21 31.72 47.21 32.09V44.77H37.68C37.26 44.77 36.92 45.11 36.92 45.53V53.51C36.92 53.93 37.26 54.27 37.68 54.27C38.1 54.27 38.44 53.93 38.44 53.51V46.29H47.97C48.39 46.29 48.73 45.95 48.73 45.53V32.73L54.62 31.79C54.87 31.75 55.08 31.59 55.19 31.37C55.3 31.15 55.28 30.9 55.16 30.68Z" stroke="#1C1C1C" mask="url(#path-1-outside-1_8_151)"/>
<path d="M37.6 23.69C37.59 23.28 37.25 22.95 36.84 22.95C36.83 22.95 36.83 22.95 36.82 22.95C30.47 23.1 24.03 23.06 17.8 23.03C15.1 23.01 12.32 23 9.55999 23C9.47999 23 9.40999 23 9.33999 23.01V19.76C11.09 19.38 12.42 17.71 12.42 15.72C12.42 13.45 10.7 11.6 8.57999 11.6C6.45999 11.6 4.73999 13.45 4.73999 15.72C4.73999 17.71 6.06999 19.38 7.81999 19.76V23.58C7.81999 23.59 7.81999 23.6 7.81999 23.62C7.81999 23.65 7.81999 23.67 7.82999 23.7C7.82999 23.72 7.83999 23.75 7.83999 23.77C7.84999 23.79 7.84999 23.82 7.85999 23.84C7.86999 23.87 7.87999 23.89 7.88999 23.92C7.89999 23.93 7.89999 23.94 7.89999 23.95C7.90999 23.97 7.91999 23.98 7.92999 23.99C7.92999 24 7.93999 24 7.93999 24.01C8.32999 24.63 9.05999 24.56 9.36999 24.52C9.42999 24.51 9.49999 24.51 9.53999 24.51C12.3 24.51 15.08 24.52 17.78 24.54C18.27 24.54 18.77 24.55 19.26 24.55V29.58C19.26 29.63 19.27 29.69 19.28 29.74C17.52 30.11 16.19 31.78 16.19 33.78C16.19 36.05 17.91 37.9 20.03 37.9C22.15 37.9 23.87 36.05 23.87 33.78C23.87 31.78 22.53 30.11 20.77 29.74C20.78 29.69 20.79 29.64 20.79 29.58V24.55C22.48 24.56 24.19 24.56 25.9 24.56C29.54 24.56 33.21 24.53 36.85 24.45C37.27 24.45 37.61 24.1 37.6 23.69ZM6.25999 15.72C6.25999 14.29 7.29999 13.12 8.57999 13.12C9.85999 13.12 10.9 14.29 10.9 15.72C10.9 17.15 9.85999 18.32 8.57999 18.32C7.29999 18.32 6.25999 17.16 6.25999 15.72ZM22.36 33.78C22.36 35.21 21.32 36.38 20.04 36.38C18.76 36.38 17.72 35.21 17.72 33.78C17.72 32.35 18.76 31.18 20.04 31.18C21.32 31.18 22.36 32.35 22.36 33.78Z" stroke="#1C1C1C" mask="url(#path-1-outside-1_8_151)"/>
<path d="M30.54 42.09C27.35 42.08 24.15 42.07 20.96 42.05L14.8 42.03C14.38 40.24 12.87 38.91 11.07 38.91C8.94999 38.91 7.22999 40.76 7.22999 43.03C7.22999 45.3 8.94999 47.15 11.07 47.15C13.02 47.15 14.64 45.58 14.88 43.55L20.95 43.57C22.24 43.58 23.53 43.58 24.82 43.59V49.92C23.07 50.3 21.74 51.97 21.74 53.96C21.74 56.23 23.46 58.08 25.58 58.08C27.7 58.08 29.42 56.23 29.42 53.96C29.42 51.97 28.09 50.3 26.34 49.92V43.6C27.74 43.61 29.14 43.61 30.53 43.62C30.95 43.62 31.29 43.28 31.29 42.86C31.3 42.43 30.96 42.09 30.54 42.09ZM11.08 45.63C9.79999 45.63 8.75999 44.46 8.75999 43.03C8.75999 41.6 9.79999 40.43 11.08 40.43C12.36 40.43 13.4 41.6 13.4 43.03C13.4 44.46 12.36 45.63 11.08 45.63ZM27.91 53.95C27.91 55.38 26.87 56.55 25.59 56.55C24.31 56.55 23.27 55.38 23.27 53.95C23.27 52.52 24.31 51.35 25.59 51.35C26.86 51.35 27.91 52.52 27.91 53.95Z" stroke="#1C1C1C" mask="url(#path-1-outside-1_8_151)"/>
<path d="M19.28 10.09V15.72C19.28 16.14 19.62 16.48 20.04 16.48H29.28C29.7 16.48 30.04 16.14 30.04 15.72C30.04 15.3 29.7 14.96 29.28 14.96H20.8V10.08C22.55 9.70001 23.88 8.03001 23.88 6.04001C23.88 3.77001 22.16 1.92001 20.04 1.92001C17.92 1.92001 16.2 3.77001 16.2 6.04001C16.2 8.04001 17.52 9.71001 19.28 10.09ZM20.03 3.45001C21.31 3.45001 22.35 4.62001 22.35 6.05001C22.35 7.48001 21.31 8.65001 20.03 8.65001C18.75 8.65001 17.71 7.48001 17.71 6.05001C17.71 4.62001 18.75 3.45001 20.03 3.45001Z" stroke="#1C1C1C" mask="url(#path-1-outside-1_8_151)"/>
<path d="M96.628 44.5H93.058L90.118 36.814H77.56L74.62 44.5H71.092L81.886 16.78H85.876L96.628 44.5ZM78.778 33.664H88.9L83.818 20.014L78.778 33.664ZM112.049 16.78C113.925 16.78 115.549 17.13 116.921 17.83C118.321 18.502 119.413 19.468 120.197 20.728C120.981 21.988 121.373 23.486 121.373 25.222C121.373 26.958 120.981 28.456 120.197 29.716C119.413 30.976 118.321 31.956 116.921 32.656C115.549 33.328 113.925 33.664 112.049 33.664H105.623V44.5H102.263V16.78H112.049ZM111.545 30.514C113.729 30.514 115.325 30.066 116.333 29.17C117.341 28.246 117.845 26.93 117.845 25.222C117.845 23.486 117.341 22.17 116.333 21.274C115.325 20.378 113.729 19.93 111.545 19.93H105.623V30.514H111.545ZM154.693 16.78V44.5H151.501V27.07L151.879 19.762H151.837L142.723 44.5H139.867L130.753 19.762H130.711L131.089 27.07V44.5H127.897V16.78H133.063L139.153 33.622L141.253 40.552H141.337L143.479 33.664L149.527 16.78H154.693ZM167.105 16.78V44.5H163.745V16.78H167.105ZM198.517 37.402C197.929 38.97 197.089 40.328 195.997 41.476C194.905 42.596 193.617 43.45 192.133 44.038C190.677 44.626 189.081 44.92 187.345 44.92C184.713 44.92 182.431 44.346 180.499 43.198C178.595 42.022 177.111 40.37 176.047 38.242C175.011 36.114 174.493 33.58 174.493 30.64C174.493 27.7 175.011 25.166 176.047 23.038C177.111 20.91 178.595 19.272 180.499 18.124C182.431 16.948 184.685 16.36 187.261 16.36C189.053 16.36 190.649 16.612 192.049 17.116C193.449 17.592 194.639 18.32 195.619 19.3C196.627 20.252 197.425 21.428 198.013 22.828L194.695 24.382C194.079 22.786 193.183 21.582 192.007 20.77C190.859 19.93 189.361 19.51 187.513 19.51C185.637 19.51 183.985 19.958 182.557 20.854C181.129 21.722 180.009 22.982 179.197 24.634C178.413 26.286 178.021 28.288 178.021 30.64C178.021 32.964 178.399 34.966 179.155 36.646C179.911 38.298 180.989 39.572 182.389 40.468C183.789 41.336 185.441 41.77 187.345 41.77C189.193 41.77 190.803 41.308 192.175 40.384C193.547 39.432 194.541 38.018 195.157 36.142L198.517 37.402Z" fill="#1C1C1C"/>
</svg>
